Release Date: 1987
Country: USA
Genres: Horror, Comedy
Director: Ethan Wiley
Stars: Arye Gross, Jonathan Stark, Royal Dano, Bill Maher, John Ratzenberger, Lar Park-Lincoln, Amy Yasbeck

Storyline: The new owner of a sinister house gets involved with reanimated corpses and demons searching for an ancient Aztec skull with magic powers. 

screenshots 
http://prostopic.net/images/2013/05/0l7jksxvnfju28hz0c6u.jpg.html 
http://prostopic.net/images/2013/05/mk5816r307n9ijis36eg.jpg.html 
http://prostopic.net/images/2013/05/bn13k9rkan5mxzkou2gu.jpg.html 
http://prostopic.net/images/2013/05/yut852pwxt4y7urhs0rs.jpg.html

General
Unique ID                      : 217208488129545296576476686974756161725 (0xA368D54914BA51A093D5C117DA6588BD)
Complete name                  : E:House2.1987.mkv
Format                         : Matroska
Format version                 : Version 4 / Version 2
File size                      : 2.05 GiB
Duration                       : 1h 24mn
Overall bit rate               : 3 463 Kbps
Encoded date                   : UTC 2013-05-29 21:42:59
Writing application            : mkvmerge v6.1.0 ('Old Devil') built on Mar  2 2013 14:32:37
Writing library                : libebml v1.3.0 + libmatroska v1.4.0

Video
ID                             : 1
Format                         : AVC
Format/Info                    : Advanced Video Codec
Format profile                 : High@L4.1
Format settings, CABAC         : Yes
Format settings, ReFrames      : 16 frames
Codec ID                       : V_MPEG4/ISO/AVC
Duration                       : 1h 24mn
Bit rate                       : 3 237 Kbps
Width                          : 720 pixels
Height                         : 384 pixels
Display aspect ratio           : 1.85:1
Frame rate mode                : Constant
Frame rate                     : 25.000 fps
Color space                    : YUV
Chroma subsampling             : 4:2:0
Bit depth                      : 8 bits
Scan type                      : Progressive
Bits/(Pixel*Frame)             : 0.468
Stream size                    : 1.87 GiB (92%)
Writing library                : x264 core 130 r2273 b3065e6
Encoding settings              : cabac=1 / ref=16 / deblock=1:-2:-2 / analyse=0x3:0x133 / me=umh / subme=10 / psy=1 / psy_rd=1.00:0.00 / mixed_ref=1 / me_range=24 / chroma_me=1 / trellis=2 / 8x8dct=1 / cqm=0 / deadzone=21,11 / fast_pskip=1 / chroma_qp_offset=-2 / threads=6 / lookahead_threads=1 / sliced_threads=0 / nr=16 / decimate=1 / interlaced=0 / bluray_compat=0 / constrained_intra=0 / bframes=8 / b_pyramid=2 / b_adapt=2 / b_bias=0 / direct=3 / weightb=1 / open_gop=0 / weightp=2 / keyint=250 / keyint_min=25 / scenecut=40 / intra_refresh=0 / rc_lookahead=60 / rc=2pass / mbtree=1 / bitrate=3237 / ratetol=1.0 / qcomp=0.60 / qpmin=8 / qpmax=45 / qpstep=4 / cplxblur=20.0 / qblur=0.5 / vbv_maxrate=62500 / vbv_bufsize=78125 / nal_hrd=none / ip_ratio=1.40 / aq=1:1.00
Default                        : Yes
Forced                         : No

Audio
ID                             : 2
Format                         : AC-3
Format/Info                    : Audio Coding 3
Mode extension                 : CM (complete main)
Format settings, Endianness    : Big
Codec ID                       : A_AC3
Duration                       : 1h 24mn
Bit rate mode                  : Constant
Bit rate                       : 224 Kbps
Channel(s)                     : 2 channels
Channel positions              : Front: L R
Sampling rate                  : 48.0 KHz
Bit depth                      : 16 bits
Compression mode               : Lossy
Stream size                    : 136 MiB (6%)
Language                       : English
Default                        : Yes
Forced                         : No